<svg width="22" height="22" viewBox="0 0 22 22" fill="none" xmlns="http://www.w3.org/2000/svg">
<path fill-rule="evenodd" clip-rule="evenodd" d="M13.774 0H13.724C13.279 0 12.908 -1.86265e-08 12.604 0.02C12.2933 0.0329397 11.9868 0.0971379 11.697 0.21C11.2811 0.381816 10.9137 0.653083 10.627 1H3.725C3.28 1 2.909 1 2.605 1.02C2.29426 1.03294 1.9878 1.09714 1.698 1.21C1.36425 1.34809 1.06097 1.55057 0.805487 1.80589C0.550001 2.0612 0.347314 2.36434 0.209 2.698C0.089 2.988 0.0419999 3.288 0.0209999 3.605C-9.12696e-08 3.909 0 4.28 0 4.725V4.775C0 5.22 -1.86265e-08 5.591 0.02 5.895C0.042 6.212 0.0899999 6.512 0.21 6.802C0.36 7.164 0.583 7.486 0.863 7.75C0.580531 8.0163 0.357644 8.33938 0.209 8.698C0.089 8.988 0.0419999 9.288 0.0209999 9.605C-9.12696e-08 9.909 0 10.28 0 10.725V10.775C0 11.22 -1.86265e-08 11.591 0.02 11.895C0.042 12.213 0.0899999 12.512 0.21 12.802C0.36 13.164 0.583 13.486 0.863 13.75C0.580531 14.0163 0.357644 14.3394 0.209 14.698C0.089 14.988 0.0419999 15.288 0.0209999 15.605C-9.12696e-08 15.909 0 16.28 0 16.725V16.775C0 17.22 -1.86265e-08 17.591 0.02 17.895C0.042 18.212 0.0899999 18.512 0.21 18.802C0.348089 19.1358 0.550573 19.439 0.805887 19.6945C1.0612 19.95 1.36434 20.1527 1.698 20.291C1.988 20.411 2.288 20.458 2.605 20.479C2.909 20.5 3.28 20.5 3.725 20.5H10.629C10.912 20.844 11.279 21.117 11.698 21.29C11.988 21.411 12.288 21.458 12.605 21.48C12.909 21.5 13.28 21.5 13.725 21.5H13.775C14.22 21.5 14.591 21.5 14.895 21.48C15.212 21.458 15.512 21.411 15.802 21.29C16.2179 21.1182 16.5853 20.8469 16.872 20.5H17.775C18.22 20.5 18.591 20.5 18.895 20.48C19.212 20.458 19.512 20.411 19.802 20.29C20.1358 20.1519 20.439 19.9494 20.6945 19.6941C20.95 19.4388 21.1527 19.1357 21.291 18.802C21.411 18.512 21.458 18.212 21.479 17.895C21.5 17.591 21.5 17.22 21.5 16.775V16.725C21.5 16.28 21.5 15.909 21.48 15.605C21.4671 15.2943 21.4029 14.9878 21.29 14.698C21.1419 14.3396 20.9197 14.0165 20.638 13.75C20.9201 13.4836 21.1426 13.1605 21.291 12.802C21.411 12.512 21.458 12.212 21.479 11.895C21.5 11.591 21.5 11.22 21.5 10.775V10.725C21.5 10.28 21.5 9.909 21.48 9.605C21.4671 9.29426 21.4029 8.98779 21.29 8.698C21.1419 8.33956 20.9197 8.01649 20.638 7.75C20.9201 7.48361 21.1426 7.16053 21.291 6.802C21.411 6.512 21.458 6.212 21.479 5.895C21.5 5.591 21.5 5.22 21.5 4.775V4.725C21.5 4.28 21.5 3.909 21.48 3.605C21.4671 3.29426 21.4029 2.9878 21.29 2.698C21.1519 2.36425 20.9494 2.06097 20.6941 1.80549C20.4388 1.55 20.1357 1.34731 19.802 1.209C19.512 1.089 19.212 1.042 18.895 1.021C18.591 1 18.22 1 17.775 1H16.871C16.5846 0.653215 16.2176 0.381958 15.802 0.21C15.5121 0.0974358 15.2057 0.0332481 14.895 0.02C14.591 -1.86265e-08 14.22 0 13.775 0H13.774ZM3.749 2.5H10.028L10.02 2.605C9.999 2.909 9.999 3.28 9.999 3.725V7H3.749C3.273 7 2.953 7 2.706 6.983C2.465 6.966 2.348 6.937 2.271 6.905C2.1192 6.84218 1.98128 6.75005 1.86511 6.63389C1.74895 6.51772 1.65682 6.3798 1.594 6.228C1.562 6.151 1.533 6.034 1.516 5.793C1.49972 5.44559 1.49405 5.09776 1.499 4.75C1.499 4.274 1.499 3.954 1.516 3.707C1.533 3.466 1.562 3.349 1.594 3.272C1.721 2.965 1.964 2.722 2.271 2.595C2.348 2.563 2.465 2.534 2.706 2.517C3.05341 2.50072 3.40124 2.49505 3.749 2.5ZM3.749 8.5H9.999V13H3.749C3.273 13 2.953 13 2.706 12.983C2.465 12.966 2.348 12.937 2.271 12.905C2.1192 12.8422 1.98128 12.7501 1.86511 12.6339C1.74895 12.5177 1.65682 12.3798 1.594 12.228C1.562 12.151 1.533 12.034 1.516 11.793C1.49972 11.4456 1.49405 11.0978 1.499 10.75C1.499 10.274 1.499 9.954 1.516 9.707C1.533 9.466 1.562 9.349 1.594 9.272C1.721 8.965 1.964 8.722 2.271 8.595C2.348 8.563 2.465 8.534 2.706 8.517C3.05341 8.50072 3.40124 8.49505 3.749 8.5ZM3.749 14.5H9.999V17.775C9.999 18.22 9.999 18.591 10.019 18.895L10.028 19H3.749C3.273 19 2.953 19 2.706 18.983C2.465 18.966 2.348 18.937 2.271 18.905C2.1192 18.8422 1.98128 18.7501 1.86511 18.6339C1.74895 18.5177 1.65682 18.3798 1.594 18.228C1.562 18.151 1.533 18.034 1.516 17.793C1.49972 17.4456 1.49405 17.0978 1.499 16.75C1.499 16.274 1.499 15.954 1.516 15.707C1.533 15.466 1.562 15.349 1.594 15.272C1.721 14.965 1.964 14.722 2.271 14.595C2.348 14.563 2.465 14.534 2.706 14.517C3.05341 14.5007 3.40124 14.495 3.749 14.5ZM17.749 19H17.47L17.478 18.895C17.499 18.591 17.499 18.22 17.499 17.775V14.5H17.749C18.225 14.5 18.545 14.5 18.792 14.517C19.033 14.534 19.15 14.563 19.227 14.595C19.534 14.722 19.777 14.965 19.904 15.272C19.936 15.349 19.965 15.466 19.982 15.707C19.999 15.954 19.999 16.274 19.999 16.75C19.999 17.226 19.999 17.546 19.982 17.793C19.965 18.034 19.936 18.151 19.904 18.228C19.8412 18.3798 19.7491 18.5177 19.6329 18.6339C19.5167 18.7501 19.3788 18.8422 19.227 18.905C19.15 18.937 19.033 18.966 18.792 18.983C18.545 19 18.225 19 17.749 19ZM17.749 13H17.499V8.5H17.749C18.225 8.5 18.545 8.5 18.792 8.517C19.033 8.534 19.15 8.563 19.227 8.595C19.534 8.722 19.777 8.965 19.904 9.272C19.936 9.349 19.965 9.466 19.982 9.707C19.999 9.954 19.999 10.274 19.999 10.75C19.999 11.226 19.999 11.546 19.982 11.793C19.965 12.034 19.936 12.151 19.904 12.228C19.8412 12.3798 19.7491 12.5177 19.6329 12.6339C19.5167 12.7501 19.3788 12.8422 19.227 12.905C19.15 12.937 19.033 12.966 18.792 12.983C18.545 13 18.225 13 17.749 13ZM17.749 7H17.499V3.725C17.499 3.28 17.499 2.909 17.479 2.605C17.4763 2.56997 17.4733 2.53497 17.47 2.5H17.749C18.225 2.5 18.545 2.5 18.792 2.517C19.033 2.534 19.15 2.563 19.227 2.595C19.534 2.722 19.777 2.965 19.904 3.272C19.936 3.349 19.965 3.466 19.982 3.707C19.999 3.954 19.999 4.274 19.999 4.75C19.999 5.226 19.999 5.546 19.982 5.793C19.965 6.034 19.936 6.151 19.904 6.228C19.8412 6.3798 19.7491 6.51772 19.6329 6.63389C19.5167 6.75005 19.3788 6.84218 19.227 6.905C19.15 6.937 19.033 6.966 18.792 6.983C18.545 7 18.225 7 17.749 7ZM15.227 19.905C15.3788 19.8422 15.5167 19.7501 15.6329 19.6339C15.7491 19.5177 15.8412 19.3798 15.904 19.228C15.936 19.151 15.965 19.034 15.982 18.793C15.999 18.546 15.999 18.226 15.999 17.75V3.75C15.999 3.274 15.999 2.954 15.982 2.707C15.965 2.466 15.936 2.349 15.904 2.272C15.777 1.96549 15.5335 1.72197 15.227 1.595C15.15 1.563 15.033 1.534 14.792 1.517C14.4446 1.50072 14.0968 1.49505 13.749 1.5C13.273 1.5 12.953 1.5 12.706 1.517C12.465 1.534 12.348 1.563 12.271 1.595C12.1192 1.65782 11.9813 1.74995 11.8651 1.86611C11.7489 1.98228 11.6568 2.1202 11.594 2.272C11.562 2.349 11.533 2.466 11.516 2.707C11.4997 3.05441 11.494 3.40224 11.499 3.75V17.75C11.499 18.226 11.499 18.546 11.516 18.793C11.533 19.034 11.562 19.151 11.594 19.228C11.6567 19.3797 11.7487 19.5176 11.8647 19.6337C11.9807 19.7499 12.1184 19.8421 12.27 19.905C12.348 19.937 12.465 19.966 12.706 19.983C12.953 20 13.273 20 13.749 20C14.225 20 14.545 20 14.792 19.983C15.033 19.966 15.15 19.937 15.227 19.905Z" fill="white"/>
<path d="M14.4219 9.77084C14.4219 9.57608 14.3445 9.38928 14.2068 9.25156C14.0691 9.11384 13.8823 9.03647 13.6875 9.03647C13.4927 9.03647 13.3059 9.11384 13.1682 9.25156C13.0305 9.38928 12.9531 9.57608 12.9531 9.77084V11.7292C12.9531 11.9239 13.0305 12.1107 13.1682 12.2485C13.3059 12.3862 13.4927 12.4636 13.6875 12.4636C13.8823 12.4636 14.0691 12.3862 14.2068 12.2485C14.3445 12.1107 14.4219 11.9239 14.4219 11.7292V9.77084Z" fill="white"/>
</svg>
