<svg width="27" height="32" viewBox="0 0 27 32" fill="none" xmlns="http://www.w3.org/2000/svg">
<path opacity="0.75" d="M26.4324 21.73C26.3158 21.5895 26.2013 21.449 26.0889 21.3134C24.5433 19.444 23.6082 18.3157 23.6082 13.0235C23.6082 10.2837 22.9527 8.03557 21.6608 6.34949C20.7082 5.1039 19.4204 4.15899 17.7231 3.46067C17.7013 3.44852 17.6817 3.43259 17.6655 3.4136C17.055 1.36924 15.3844 0 13.5002 0C11.616 0 9.94606 1.36924 9.33556 3.4115C9.31927 3.42978 9.30004 3.44522 9.27866 3.45716C5.31778 5.08774 3.39284 8.21612 3.39284 13.0214C3.39284 18.3157 2.45917 19.444 0.912199 21.3113C0.799793 21.4469 0.685281 21.5846 0.56866 21.7279C0.267415 22.0912 0.0765513 22.5332 0.0186572 23.0016C-0.0392368 23.47 0.0382622 23.9451 0.241983 24.3708C0.675445 25.2841 1.59928 25.8511 2.65378 25.8511H24.3543C25.4039 25.8511 26.3214 25.2848 26.7563 24.3758C26.9609 23.9499 27.0391 23.4744 26.9817 23.0055C26.9243 22.5366 26.7337 22.0939 26.4324 21.73ZM13.5002 31.4734C14.5154 31.4726 15.5114 31.1971 16.3826 30.676C17.2539 30.1549 17.9678 29.4077 18.4488 28.5137C18.4715 28.4708 18.4827 28.4229 18.4813 28.3744C18.4799 28.326 18.4661 28.2787 18.441 28.2372C18.416 28.1957 18.3807 28.1614 18.3385 28.1375C18.2962 28.1137 18.2486 28.1012 18.2001 28.1013H8.80164C8.75311 28.1011 8.70537 28.1135 8.66305 28.1373C8.62074 28.161 8.5853 28.1954 8.56019 28.2369C8.53508 28.2784 8.52115 28.3257 8.51975 28.3742C8.51836 28.4227 8.52955 28.4708 8.55224 28.5137C9.03315 29.4076 9.747 30.1547 10.6181 30.6758C11.4892 31.1969 12.4851 31.4725 13.5002 31.4734Z" fill="white"/>
</svg>
