<svg width="31" height="32" viewBox="0 0 31 32" fill="none" xmlns="http://www.w3.org/2000/svg">
<path fill-rule="evenodd" clip-rule="evenodd" d="M20.9765 1.47132C21.4156 -0.48225 24.2755 -0.49392 24.7337 1.45731L24.7553 1.55068L24.7985 1.73039C25.3264 3.9197 27.1474 5.59318 29.4291 5.9783C31.5236 6.33307 31.5236 9.25992 29.4291 9.61469C28.3078 9.80411 27.2691 10.3117 26.4435 11.0738C25.6179 11.8358 25.0422 12.8182 24.7889 13.8976L24.7337 14.1357C24.2779 16.0869 21.4156 16.0752 20.9741 14.1217L20.9285 13.9163C20.6854 12.833 20.116 11.8448 19.2929 11.0778C18.4699 10.3108 17.4305 9.79977 16.3075 9.61002C14.2178 9.25758 14.2178 6.3354 16.3075 5.98296C17.4265 5.794 18.4625 5.28607 19.2843 4.52359C20.1061 3.7611 20.6767 2.77839 20.9237 1.70005L20.9573 1.55068L20.9765 1.47132ZM15.8565 12.1238C15.265 12.0288 14.6974 11.8253 14.1842 11.5239H8.14525C6.37402 11.5237 4.66489 12.1587 3.34488 13.3076C2.02487 14.4565 1.18667 16.0386 0.990652 17.7511L0.030948 26.1722C-0.104088 27.3931 0.205531 28.6213 0.905848 29.6429C1.60616 30.6646 2.65277 31.4147 3.86328 31.7627C5.07379 32.1107 6.37145 32.0345 7.53011 31.5473C8.68877 31.0601 9.63497 30.1929 10.2038 29.0967L11.0531 27.4465H18.0734L18.9203 29.0967C19.4853 30.1991 20.4312 31.0727 21.5922 31.5644C22.7532 32.056 24.0551 32.1342 25.2695 31.7853C26.4839 31.4363 27.5331 30.6825 28.2332 29.6561C28.9333 28.6297 29.2394 27.3963 29.098 26.1722L28.1383 17.7511C28.0287 16.7839 27.7124 15.8498 27.2098 15.0086C25.9094 19.3078 19.4314 19.1771 18.4165 14.6655L18.3685 14.4601C18.2362 13.8725 17.9271 13.3366 17.4806 12.9205C17.0341 12.5044 16.4704 12.2271 15.8613 12.1238H15.8565ZM9.9255 17.2096C9.9255 16.8227 9.76751 16.4516 9.48629 16.1781C9.20508 15.9045 8.82366 15.7508 8.42596 15.7508C8.02826 15.7508 7.64684 15.9045 7.36563 16.1781C7.08441 16.4516 6.92642 16.8227 6.92642 17.2096V18.4046H5.698C5.3003 18.4046 4.91889 18.5583 4.63767 18.8318C4.35645 19.1054 4.19846 19.4764 4.19846 19.8633C4.19846 20.2502 4.35645 20.6213 4.63767 20.8948C4.91889 21.1684 5.3003 21.3221 5.698 21.3221H6.92642V22.5171C6.92642 22.904 7.08441 23.275 7.36563 23.5486C7.64684 23.8222 8.02826 23.9759 8.42596 23.9759C8.82366 23.9759 9.20508 23.8222 9.48629 23.5486C9.76751 23.275 9.9255 22.904 9.9255 22.5171V21.3221H11.1539C11.5516 21.3221 11.933 21.1684 12.2143 20.8948C12.4955 20.6213 12.6535 20.2502 12.6535 19.8633C12.6535 19.4764 12.4955 19.1054 12.2143 18.8318C11.933 18.5583 11.5516 18.4046 11.1539 18.4046H9.9255V17.2096ZM21.322 21.2847C21.3334 21.4783 21.3041 21.672 21.2358 21.8541C21.1675 22.0362 21.0617 22.2028 20.9249 22.3437C20.7881 22.4847 20.6232 22.5969 20.4402 22.6737C20.2572 22.7504 20.0601 22.79 19.8608 22.79C19.6616 22.79 19.4644 22.7504 19.2815 22.6737C19.0985 22.5969 18.9335 22.4847 18.7967 22.3437C18.6599 22.2028 18.5542 22.0362 18.4859 21.8541C18.4176 21.672 18.3883 21.4783 18.3997 21.2847C18.4211 20.9219 18.5843 20.5807 18.856 20.3311C19.1277 20.0815 19.4872 19.9425 19.8608 19.9425C20.2345 19.9425 20.594 20.0815 20.8657 20.3311C21.1373 20.5807 21.3006 20.9219 21.322 21.2847Z" fill="white"/>
<path opacity="0.75" fill-rule="evenodd" clip-rule="evenodd" d="M20.2998 2.42534C20.7247 0.532821 23.4924 0.521515 23.9359 2.41177L23.9568 2.50222L23.9986 2.67632C24.5094 4.79721 26.2717 6.4184 28.4798 6.79147C30.5067 7.13516 30.5067 9.97054 28.4798 10.3142C27.3946 10.4977 26.3894 10.9895 25.5904 11.7277C24.7915 12.4659 24.2344 13.4177 23.9893 14.4633L23.9359 14.6939C23.4947 16.5842 20.7247 16.5729 20.2975 14.6804L20.2534 14.4814C20.0181 13.432 19.4671 12.4746 18.6706 11.7316C17.874 10.9886 16.8682 10.4935 15.7815 10.3097C13.7591 9.96828 13.7591 7.13742 15.7815 6.796C16.8643 6.61294 17.8669 6.12088 18.6623 5.38222C19.4576 4.64356 20.0097 3.69156 20.2487 2.64693L20.2813 2.50222L20.2998 2.42534ZM15.345 12.7449C14.7725 12.6529 14.2233 12.4557 13.7266 12.1638H7.8825C6.16841 12.1635 4.51441 12.7788 3.23698 13.8918C1.95955 15.0048 1.14839 16.5374 0.958696 18.1963L0.0299497 26.3543C-0.10073 27.537 0.198901 28.7269 0.876627 29.7166C1.55435 30.7063 2.5672 31.433 3.73866 31.7701C4.91012 32.1073 6.16592 32.0334 7.2872 31.5614C8.40849 31.0895 9.32416 30.2493 9.87466 29.1874L10.6966 27.5888H17.4904L18.31 29.1874C18.8567 30.2554 19.7722 31.1017 20.8957 31.578C22.0193 32.0543 23.2792 32.13 24.4544 31.792C25.6295 31.4539 26.645 30.7237 27.3225 29.7294C27.9999 28.735 28.2962 27.5401 28.1593 26.3543L27.2306 18.1963C27.1245 17.2594 26.8185 16.3545 26.332 15.5396C25.0736 19.7045 18.8045 19.5778 17.8224 15.2072L17.776 15.0082C17.6479 14.439 17.3488 13.9198 16.9167 13.5167C16.4846 13.1137 15.9391 12.845 15.3496 12.7449H15.345ZM9.60532 17.6718C9.60532 17.297 9.45243 16.9375 9.18028 16.6725C8.90814 16.4075 8.53903 16.2586 8.15415 16.2586C7.76928 16.2586 7.40017 16.4075 7.12803 16.6725C6.85588 16.9375 6.70299 17.297 6.70299 17.6718V18.8294H5.51419C5.12932 18.8294 4.76021 18.9783 4.48807 19.2433C4.21592 19.5084 4.06303 19.8678 4.06303 20.2426C4.06303 20.6174 4.21592 20.9768 4.48807 21.2419C4.76021 21.5069 5.12932 21.6558 5.51419 21.6558H6.70299V22.8134C6.70299 23.1882 6.85588 23.5477 7.12803 23.8127C7.40017 24.0777 7.76928 24.2266 8.15415 24.2266C8.53903 24.2266 8.90814 24.0777 9.18028 23.8127C9.45243 23.5477 9.60532 23.1882 9.60532 22.8134V21.6558H10.7941C11.179 21.6558 11.5481 21.5069 11.8202 21.2419C12.0924 20.9768 12.2453 20.6174 12.2453 20.2426C12.2453 19.8678 12.0924 19.5084 11.8202 19.2433C11.5481 18.9783 11.179 18.8294 10.7941 18.8294H9.60532V17.6718ZM20.6342 21.6196C20.6452 21.8071 20.6168 21.9948 20.5508 22.1712C20.4847 22.3476 20.3823 22.509 20.2499 22.6455C20.1175 22.782 19.9579 22.8908 19.7808 22.9651C19.6038 23.0395 19.413 23.0778 19.2202 23.0778C19.0273 23.0778 18.8365 23.0395 18.6595 22.9651C18.4824 22.8908 18.3228 22.782 18.1904 22.6455C18.058 22.509 17.9556 22.3476 17.8896 22.1712C17.8235 21.9948 17.7951 21.8071 17.8061 21.6196C17.8268 21.268 17.9848 20.9375 18.2477 20.6957C18.5107 20.454 18.8586 20.3193 19.2202 20.3193C19.5818 20.3193 19.9297 20.454 20.1926 20.6957C20.4555 20.9375 20.6135 21.268 20.6342 21.6196Z" fill="url(#paint0_linear_0_1)"/>
<defs>
<linearGradient id="paint0_linear_0_1" x1="15" y1="21.5" x2="15" y2="35" gradientUnits="userSpaceOnUse">
<stop stop-color="#FF6B27"/>
<stop offset="1" stop-color="#FF6B27" stop-opacity="0"/>
</linearGradient>
</defs>
</svg>
