<svg width="50" height="56" viewBox="0 0 50 56" fill="none" xmlns="http://www.w3.org/2000/svg">
<path fill-rule="evenodd" clip-rule="evenodd" d="M24.8083 25.7651C23.9196 23.728 21.8876 22.3041 19.5231 22.3041C19.3532 22.3041 19.185 22.3115 19.0189 22.3259L18.2982 21.0999C18.6961 21.0304 19.1054 20.9942 19.5231 20.9942C22.6235 20.9942 25.258 22.989 26.2133 25.7651L24.8083 25.7651ZM19.015 33.8091C19.1824 33.8237 19.3519 33.8312 19.5231 33.8312C21.9124 33.8312 23.9621 32.3774 24.8358 30.3061L26.235 30.3061C25.2985 33.1156 22.6474 35.1411 19.5231 35.1411C19.1069 35.1411 18.6991 35.1052 18.3027 35.0362L19.015 33.8091ZM15.0153 24.4759C14.2294 25.461 13.7596 26.7095 13.7596 28.0677C13.7596 29.4249 14.2287 30.6725 15.0136 31.6573L14.3173 32.8566C13.1578 31.5968 12.4497 29.9149 12.4497 28.0677C12.4497 26.2223 13.1563 24.542 14.3138 23.2825L15.0153 24.4759Z" fill="white"/>
<path fill-rule="evenodd" clip-rule="evenodd" d="M41.6603 36.5383C37.7825 36.5383 34.5228 33.8916 33.5892 30.306L21.3503 30.306C21.1636 30.306 20.991 30.4054 20.8972 30.5669L14.5139 41.5626C16.8896 44.1749 17.4234 48.1217 15.5634 51.3434C13.2605 55.3322 8.16 56.6989 4.1712 54.3959C0.182397 52.093 -1.18427 46.9925 1.11867 43.0037C3.07686 39.612 7.05769 38.1162 10.6579 39.1601L9.97603 40.3347C7.02775 39.6285 3.84624 40.8992 2.25307 43.6587C0.311853 47.021 1.46386 51.3203 4.82615 53.2615C8.18844 55.2027 12.4878 54.0507 14.429 50.6884C15.9229 48.1009 15.5849 44.9583 13.8172 42.7627C13.5358 42.4132 13.2182 42.0877 12.866 41.7922L19.7644 29.9093C20.0925 29.344 20.6967 28.9961 21.3503 28.9961L34.6753 28.9962C34.7262 29.4471 34.8198 29.8851 34.9519 30.306C35.8472 33.1589 38.5121 35.2284 41.6603 35.2284C45.5428 35.2284 48.6901 32.0811 48.6901 28.1986C48.6901 24.3162 45.5428 21.1689 41.6603 21.1689C38.6334 21.1689 36.0533 23.082 35.0632 25.7651L33.6813 25.7651C34.7227 22.3463 37.901 19.859 41.6603 19.859C46.2662 19.859 50 23.5928 50 28.1986C50 32.8045 46.2662 36.5383 41.6603 36.5383ZM10.5779 16.9268L16.9568 27.7788C17.0526 27.9419 17.0532 28.1439 16.9582 28.3074L10.6579 39.1601L9.97604 40.3347C10.4038 40.4371 10.8266 40.5812 11.2389 40.7683L18.0911 28.9651C18.4234 28.3927 18.4215 27.6856 18.0861 27.115L11.1761 15.3597C10.7515 15.53 10.3174 15.6559 9.87965 15.739C7.02479 16.2812 4.01505 15.0045 2.47995 12.3456C0.53873 8.98334 1.69074 4.684 5.05303 2.74278C8.41532 0.801564 12.7147 1.95357 14.6559 5.31586C16.2086 8.00528 15.7823 11.2942 13.8288 13.4964C13.5352 13.8273 13.2072 14.1336 12.8462 14.4097L19.7593 26.1704C20.0887 26.7308 20.6902 27.075 21.3403 27.075L34.7199 27.075C34.7926 26.6224 34.9085 26.1844 35.0632 25.7651L21.3403 25.7651C21.1545 25.7651 20.9827 25.6667 20.8886 25.5066L14.5211 14.6741C17.0822 12.0678 17.7063 7.97961 15.7903 4.66091C13.4873 0.672108 8.38688 -0.694557 4.39808 1.60838C0.409279 3.91131 -0.957386 9.01178 1.34555 13.0006C3.24825 16.2962 7.06059 17.8018 10.5779 16.9268Z" fill="white"/>
<path d="M4.04137 44.6934C5.41653 42.3115 8.4622 41.4955 10.8441 42.8706C13.2259 44.2458 14.042 47.2915 12.6668 49.6733C11.2917 52.0552 8.246 52.8713 5.86414 51.4961C3.48228 50.1209 2.6662 47.0753 4.04137 44.6934Z" fill="white"/>
<path fill-rule="evenodd" clip-rule="evenodd" d="M10.1891 44.005C8.43377 42.9916 6.18922 43.593 5.17577 45.3483C4.16232 47.1037 4.76374 49.3482 6.51909 50.3617C8.27444 51.3751 10.519 50.7737 11.5324 49.0184C12.5459 47.263 11.9445 45.0185 10.1891 44.005ZM10.8441 42.8706C8.4622 41.4955 5.41653 42.3115 4.04137 44.6934C2.6662 47.0753 3.48228 50.1209 5.86414 51.4961C8.246 52.8713 11.2917 52.0552 12.6668 49.6733C14.042 47.2915 13.2259 44.2458 10.8441 42.8706Z" fill="white"/>
<path d="M4.30333 6.35712C5.6785 3.97526 8.72417 3.15918 11.106 4.53434C13.4879 5.90951 14.304 8.95518 12.9288 11.337C11.5536 13.7189 8.50796 14.535 6.12611 13.1598C3.74425 11.7847 2.92816 8.73898 4.30333 6.35712Z" fill="white"/>
<path fill-rule="evenodd" clip-rule="evenodd" d="M10.4511 5.66875C8.69573 4.6553 6.45118 5.25672 5.43773 7.01207C4.42428 8.76742 5.02571 11.012 6.78105 12.0254C8.5364 13.0389 10.781 12.4374 11.7944 10.6821C12.8078 8.92675 12.2064 6.6822 10.4511 5.66875ZM11.106 4.53434C8.72417 3.15918 5.6785 3.97526 4.30333 6.35712C2.92816 8.73898 3.74425 11.7847 6.12611 13.1598C8.50796 14.535 11.5536 13.7189 12.9288 11.337C14.304 8.95518 13.4879 5.90951 11.106 4.53434Z" fill="white"/>
<path d="M37.4 25.5689C38.7752 23.187 41.8208 22.3709 44.2027 23.7461C46.5846 25.1213 47.4007 28.1669 46.0255 30.5488C44.6503 32.9307 41.6046 33.7467 39.2228 32.3716C36.8409 30.9964 36.0248 27.9507 37.4 25.5689Z" fill="white"/>
<path fill-rule="evenodd" clip-rule="evenodd" d="M43.5478 24.8805C41.7924 23.8671 39.5479 24.4685 38.5344 26.2238C37.521 27.9792 38.1224 30.2237 39.8777 31.2372C41.6331 32.2506 43.8776 31.6492 44.8911 29.8939C45.9045 28.1385 45.3031 25.894 43.5478 24.8805ZM44.2027 23.7461C41.8208 22.3709 38.7752 23.187 37.4 25.5689C36.0248 27.9507 36.8409 30.9964 39.2228 32.3716C41.6046 33.7467 44.6503 32.9307 46.0255 30.5488C47.4007 28.1669 46.5846 25.1213 44.2027 23.7461Z" fill="white"/>
</svg>