<svg width="24" height="24" viewBox="0 0 24 24" fill="none" xmlns="http://www.w3.org/2000/svg">
<path d="M14.693 0.311C13.8129 0.114477 12.9147 0.0102468 12.013 0C11.089 0.01 10.19 0.115 9.30903 0.311C9.12117 0.353024 8.95114 0.452739 8.82275 0.596188C8.69437 0.739636 8.61405 0.919639 8.59303 1.111L8.38403 2.988C8.35407 3.25275 8.26256 3.50681 8.11681 3.72984C7.97106 3.95288 7.77512 4.1387 7.54468 4.27244C7.31423 4.40618 7.05569 4.48411 6.78972 4.50001C6.52376 4.51591 6.25777 4.46933 6.01303 4.364L4.29303 3.607C4.11845 3.53014 3.92429 3.50945 3.73743 3.54779C3.55057 3.58613 3.38025 3.6816 3.25003 3.821C2.00609 5.15206 1.0799 6.74767 0.541034 8.488C0.484262 8.67122 0.485916 8.86756 0.545764 9.04979C0.605613 9.23203 0.720691 9.39112 0.875034 9.505L2.40203 10.63C2.61682 10.7881 2.79143 10.9944 2.91177 11.2324C3.03212 11.4704 3.09482 11.7333 3.09482 12C3.09482 12.2667 3.03212 12.5296 2.91177 12.7676C2.79143 13.0056 2.61682 13.2119 2.40203 13.37L0.875034 14.498C0.720889 14.6118 0.60594 14.7707 0.5461 14.9528C0.486261 15.1348 0.48449 15.3309 0.541034 15.514C1.07879 17.2559 2.0043 18.8532 3.24803 20.186C3.37813 20.3256 3.5484 20.4212 3.73526 20.4598C3.92213 20.4983 4.11635 20.4777 4.29103 20.401L6.01903 19.642C6.26234 19.5358 6.52721 19.4882 6.79228 19.5031C7.05736 19.5181 7.31521 19.5951 7.54503 19.728C8.01103 19.998 8.32203 20.473 8.38303 21.009L8.59103 22.886C8.61192 23.0748 8.69055 23.2525 8.81618 23.395C8.94182 23.5374 9.10834 23.6377 9.29303 23.682C11.0724 24.1062 12.9266 24.1062 14.706 23.682C14.8907 23.6377 15.0573 23.5374 15.1829 23.395C15.3085 23.2525 15.3871 23.0748 15.408 22.886L15.616 21.006C15.6443 20.7411 15.7346 20.4866 15.8797 20.2632C16.0248 20.0397 16.2206 19.8537 16.4512 19.7202C16.6817 19.5867 16.9405 19.5095 17.2065 19.4949C17.4725 19.4802 17.7382 19.5286 17.982 19.636L19.709 20.395C19.8837 20.4717 20.0779 20.4923 20.2648 20.4538C20.4517 20.4152 20.6219 20.3196 20.752 20.18C21.9951 18.8486 22.9206 17.2531 23.459 15.513C23.5158 15.3298 23.5142 15.1334 23.4543 14.9512C23.3945 14.769 23.2794 14.6099 23.125 14.496L21.6 13.37C21.3852 13.212 21.2105 13.0057 21.0901 12.7678C20.9696 12.5299 20.9068 12.2669 20.9068 12.0003C20.9067 11.7336 20.9693 11.4706 21.0895 11.2326C21.2098 10.9946 21.3843 10.7881 21.599 10.63L23.124 9.503C23.278 9.38905 23.3928 9.23007 23.4524 9.04806C23.5121 8.86604 23.5137 8.66998 23.457 8.487C22.9185 6.74674 21.9927 5.15112 20.749 3.82C20.6188 3.6806 20.4485 3.58513 20.2616 3.54679C20.0748 3.50845 19.8806 3.52914 19.706 3.606L17.986 4.363C17.772 4.45828 17.5403 4.50734 17.306 4.507C16.8871 4.50623 16.4832 4.35091 16.1717 4.07079C15.8603 3.79068 15.6631 3.40548 15.618 2.989L15.408 1.11C15.3871 0.919034 15.307 0.739377 15.179 0.596128C15.051 0.45288 14.8805 0.353195 14.693 0.311ZM12 16C10.9392 16 9.92175 15.5786 9.17161 14.8284C8.42146 14.0783 8.00003 13.0609 8.00003 12C8.00003 10.9391 8.42146 9.92172 9.17161 9.17157C9.92175 8.42143 10.9392 8 12 8C13.0609 8 14.0783 8.42143 14.8285 9.17157C15.5786 9.92172 16 10.9391 16 12C16 13.0609 15.5786 14.0783 14.8285 14.8284C14.0783 15.5786 13.0609 16 12 16Z" fill="white"/>
</svg>
