<svg version="1.2" xmlns="http://www.w3.org/2000/svg" viewBox="0 0 512 512" width="512" height="512">
	<title>nintendo-3ds-ish-svgrepo-com-svg</title>
	<style>
		.s0 { fill: #ffffff } 
	</style>
	<g id="Layer">
		<path id="Layer" fill-rule="evenodd" class="s0" d="m10.8 264.2h490.4v183c0 35.8-29 64.8-64.8 64.8h-360.8c-35.8 0-64.8-29-64.8-64.8zm429.4 110c0 7.8 6.3 14 14 14 7.8 0 14.1-6.2 14.1-14 0-7.7-6.3-14-14.1-14-7.7 0-14 6.3-14 14zm-30.5-30.5c0 7.7 6.3 14 14 14 7.8 0 14.1-6.3 14.1-14 0-7.8-6.3-14.1-14.1-14.1-7.7 0-14 6.3-14 14.1zm0 61c0 7.8 6.3 14.1 14 14.1 7.8 0 14.1-6.3 14.1-14.1 0-7.7-6.3-14-14.1-14-7.7 0-14 6.3-14 14zm-30.5-30.5c0 7.8 6.2 14 14 14 7.8 0 14-6.2 14-14 0-7.7-6.2-14-14-14-7.8 0-14 6.3-14 14zm-224.7 75.4h203v-150.8h-203zm-106.1-63.8h30.2v30.2h23.2v-30.2h30.3v-23.3h-30.3v-30.2h-23.2v30.2h-30.2z"/>
		<path id="Layer" fill-rule="evenodd" class="s0" d="m501.2 64.8v183h-490.4v-183c0-35.8 29-64.8 64.8-64.8h360.8c35.8 0 64.8 29 64.8 64.8zm-114.5-14h-261.4v155.4h261.4z"/>
	</g>
</svg>